<?xml version="1.0" standalone="no"?>
<!DOCTYPE svg PUBLIC "-//W3C//DTD SVG 20010904//EN"
 "http://www.w3.org/TR/2001/REC-SVG-20010904/DTD/svg10.dtd">
<svg version="1.0" xmlns="http://www.w3.org/2000/svg"
 width="400.000000pt" height="400.000000pt" viewBox="0 0 400.000000 400.000000"
 preserveAspectRatio="xMidYMid meet">
<metadata>
Created by potrace 1.11, written by Peter Selinger 2001-2013
</metadata>
<g transform="translate(0.000000,400.000000) scale(0.100000,-0.100000)"
fill="#000000" stroke="none">
<path d="M1273 3816 c-98 -99 -191 -189 -205 -198 -14 -9 -138 -47 -274 -83
-137 -37 -252 -69 -255 -73 -4 -4 -37 -122 -74 -262 -37 -140 -71 -261 -74
-267 -4 -7 -93 -100 -199 -207 l-191 -194 25 -96 c13 -53 44 -167 68 -254 24
-86 42 -173 41 -192 -2 -19 -24 -113 -49 -207 -26 -95 -55 -204 -65 -242 l-18
-70 196 -196 196 -196 75 -271 75 -271 250 -67 c138 -36 261 -72 275 -79 14
-7 108 -96 210 -197 l186 -184 267 71 268 72 132 -33 c73 -18 195 -51 272 -72
l140 -38 178 180 c99 99 191 188 205 199 15 10 140 49 277 85 138 37 253 70
256 74 3 4 18 52 32 107 62 231 116 427 119 430 2 2 90 92 196 199 l193 196
-52 187 c-28 104 -58 213 -66 243 -9 30 -16 71 -17 90 -2 28 41 204 123 506 9
31 5 36 -185 225 -106 107 -198 205 -203 219 -6 14 -38 126 -72 250 -34 124
-65 236 -68 250 -6 22 -19 28 -92 46 -253 65 -407 108 -434 121 -16 8 -114 98
-216 200 l-187 185 -108 -30 c-303 -86 -420 -113 -454 -107 -19 4 -111 27
-205 52 -93 25 -177 46 -185 48 -8 2 -41 10 -72 18 l-57 15 -178 -182z m572
30 c59 -16 63 -14 -130 -65 -82 -22 -184 -48 -225 -60 -41 -11 -120 -31 -175
-46 -55 -14 -110 -30 -122 -35 -13 -5 -23 -6 -23 -3 0 4 66 75 148 158 l147
150 165 -43 c91 -23 188 -48 215 -56z m833 -52 c87 -86 148 -154 137 -151 -11
3 -108 29 -215 56 -107 27 -264 68 -349 90 -84 23 -156 41 -160 42 -4 0 399
112 427 118 2 1 74 -69 160 -155z m-423 -54 c127 -34 273 -72 325 -86 52 -13
100 -26 105 -28 6 -1 -300 -3 -679 -3 -385 0 -680 4 -667 9 12 4 100 28 194
53 95 25 237 63 317 84 80 22 152 37 160 35 8 -2 119 -31 245 -64z m665 -189
c10 -14 65 -106 122 -205 58 -100 252 -437 433 -749 182 -316 328 -579 328
-592 0 -20 -282 -525 -342 -615 -10 -14 -20 -32 -24 -40 -3 -8 -122 -215 -264
-460 -248 -428 -259 -445 -292 -451 -54 -11 -1742 -9 -1771 2 -14 5 -37 28
-52 52 -25 39 -360 617 -416 717 -14 25 -105 182 -202 350 -272 471 -253 433
-237 472 8 18 182 323 387 678 529 915 492 853 520 860 14 4 422 6 908 6 l883
-1 19 -24z m-1930 -17 c0 -3 -120 -125 -266 -272 -146 -147 -264 -260 -261
-251 3 9 29 107 58 217 l53 200 136 37 c74 20 144 38 155 40 11 3 40 11 65 19
52 17 60 18 60 10z m2223 -45 c106 -28 195 -54 200 -58 7 -7 34 -99 77 -261
12 -47 27 -97 32 -112 6 -15 8 -32 7 -37 -2 -6 -123 109 -269 254 -146 146
-259 265 -252 265 7 0 99 -23 205 -51z m-2276 -86 c-12 -21 -343 -594 -366
-634 -127 -224 -306 -527 -309 -524 -2 1 24 106 58 232 34 125 73 271 87 323
13 52 32 104 41 114 27 30 487 496 490 496 2 0 1 -3 -1 -7z m2638 -540 c7 -26
25 -91 39 -143 13 -52 49 -185 80 -295 30 -109 54 -200 53 -202 -2 -1 -14 19
-28 45 -14 26 -64 112 -111 192 -76 131 -533 921 -546 945 -3 6 108 -103 247
-242 226 -225 253 -256 266 -300z m361 -363 c-11 -71 -104 -394 -110 -380 -3
8 -40 141 -81 295 -42 154 -83 303 -90 330 -8 28 -17 61 -21 75 -5 17 43 -24
150 -130 152 -151 157 -156 152 -190z m-3602 208 c-19 -68 -62 -229 -96 -358
-34 -129 -63 -237 -65 -239 -1 -2 -5 -2 -8 1 -6 6 -104 362 -108 390 -1 10 60
79 152 172 85 86 155 156 156 156 1 0 -13 -55 -31 -122z m3561 -1013 l55 -199
-155 -156 c-85 -86 -155 -152 -155 -147 0 10 148 566 177 667 9 30 18 51 19
45 2 -5 28 -100 59 -210z m-3631 -130 c48 -176 89 -328 91 -338 2 -10 7 -28
11 -40 4 -12 -65 50 -153 137 l-160 160 24 85 c13 47 38 141 55 209 18 67 35
119 38 115 4 -5 46 -152 94 -328z m221 -175 c125 -217 236 -411 248 -430 11
-19 60 -104 108 -188 49 -83 89 -155 89 -158 0 -3 -111 105 -246 240 l-246
246 -89 328 c-49 180 -92 336 -96 347 -3 11 -3 18 -1 15 3 -3 107 -183 233
-400z m3240 310 c-13 -47 -47 -173 -75 -280 -93 -350 -50 -279 -340 -570 -139
-140 -244 -239 -232 -220 11 19 65 114 120 210 55 96 152 265 216 375 64 110
164 284 223 387 60 102 109 186 110 184 1 -1 -9 -40 -22 -86z m-240 -895 c-30
-110 -58 -206 -63 -214 -5 -8 -33 -21 -63 -28 -30 -7 -61 -15 -70 -17 -36 -9
-256 -68 -274 -73 -11 -3 102 116 250 265 148 150 270 271 271 269 2 -1 -22
-92 -51 -202z m-2741 -74 l268 -268 -189 49 c-103 27 -200 51 -214 54 -24 6
-29 17 -78 197 -66 245 -64 237 -60 237 2 0 125 -121 273 -269z m1916 -351 c0
-4 -17 -11 -37 -15 -34 -6 -298 -76 -533 -141 l-85 -23 -305 81 c-168 44 -324
85 -347 90 -24 5 -43 11 -43 13 0 2 304 3 675 3 371 0 675 -3 675 -8z m27
-158 l-158 -158 -197 52 c-108 29 -206 53 -217 54 -16 0 -17 2 -5 9 13 7 298
85 355 97 11 3 99 26 195 53 96 27 177 49 180 50 3 0 -66 -70 -153 -157z
m-1414 124 c128 -34 253 -67 456 -121 96 -25 176 -47 178 -48 1 -2 -37 -13
-85 -25 -48 -12 -145 -37 -215 -56 l-128 -34 -155 154 c-85 85 -152 154 -149
154 3 0 47 -11 98 -24z"/>
</g>
</svg>
